<svg width="24" height="24" viewBox="0 0 24 24" fill="none" xmlns="http://www.w3.org/2000/svg">
<path d="M21.9772 15.1876C22.051 15.3159 22.0989 15.4575 22.1181 15.6043C22.1372 15.7511 22.1273 15.9002 22.0888 16.0431C22.0503 16.1861 21.9841 16.32 21.8938 16.4374C21.8036 16.5547 21.6911 16.6531 21.5628 16.727C21.4345 16.8009 21.2929 16.8488 21.1461 16.8679C20.9994 16.8871 20.8502 16.8771 20.7073 16.8386C20.5643 16.8002 20.4304 16.7339 20.313 16.6436C20.1957 16.5534 20.0973 16.4409 20.0234 16.3126L18.4428 13.547C17.5608 14.1019 16.6099 14.5387 15.6144 14.8464L16.1103 17.8126C16.1591 18.1069 16.089 18.4085 15.9155 18.6511C15.742 18.8937 15.4792 19.0575 15.185 19.1064C15.1231 19.1173 15.0603 19.1226 14.9975 19.1223C14.7318 19.1221 14.4748 19.0278 14.272 18.8562C14.0692 18.6846 13.9336 18.4468 13.8894 18.1848L13.4065 15.2973C12.47 15.4011 11.5249 15.4011 10.5884 15.2973L10.1103 18.1876C10.066 18.4499 9.93014 18.688 9.72694 18.8596C9.52373 19.0312 9.26628 19.1253 9.0003 19.1251C8.93745 19.1254 8.87469 19.1201 8.8128 19.1092C8.66708 19.0847 8.52763 19.0316 8.4024 18.9532C8.27717 18.8748 8.16862 18.7724 8.08296 18.652C7.99729 18.5316 7.93618 18.3955 7.90313 18.2515C7.87007 18.1075 7.86571 17.9583 7.8903 17.8126L8.38623 14.8389C7.3907 14.5312 6.43979 14.0944 5.5578 13.5395L3.97717 16.3126C3.9033 16.4409 3.80489 16.5534 3.68755 16.6436C3.57021 16.7339 3.43625 16.8002 3.2933 16.8386C3.15036 16.8771 3.00124 16.8871 2.85445 16.8679C2.70766 16.8488 2.56608 16.8009 2.4378 16.727C2.30951 16.6531 2.19703 16.5547 2.10678 16.4374C2.01653 16.32 1.95027 16.1861 1.91179 16.0431C1.87332 15.9002 1.86337 15.7511 1.88252 15.6043C1.90168 15.4575 1.94955 15.3159 2.02342 15.1876L3.7503 12.1736C3.165 11.645 2.62238 11.071 2.12748 10.457C1.95277 10.224 1.87524 9.93229 1.91119 9.64328C1.94713 9.35426 2.09376 9.09045 2.32023 8.90734C2.54671 8.72422 2.83537 8.63606 3.1255 8.66141C3.41564 8.68676 3.68464 8.82364 3.87592 9.04326C5.37967 10.9051 8.0103 13.1251 12.0003 13.1251C15.9903 13.1251 18.6209 10.9051 20.1247 9.04326C20.3129 8.81337 20.5843 8.66725 20.8799 8.63679C21.1754 8.60633 21.471 8.69401 21.7021 8.88069C21.9332 9.06736 22.0811 9.33788 22.1135 9.63321C22.1459 9.92853 22.0601 10.2247 21.875 10.457C21.3795 11.0711 20.8362 11.6451 20.2503 12.1736L21.9772 15.1876Z" fill="#475569"/>
</svg>
